<svg xmlns="http://www.w3.org/2000/svg" width="18" height="16" viewBox="0 0 18 16">
  <defs>
    <style>
      .icon {
        fill: #989898;
        fill-rule: evenodd;
      }
    </style>
  </defs>
  <path id="Forma_1" data-name="Forma 1" class="icon" d="M8.124,14.571A6.786,6.786,0,1,1,11.355,1.814,1.5,1.5,0,0,1,9.923,4.457,3.781,3.781,0,1,0,11.6,9.287H9.846a1.5,1.5,0,1,1,0-3h3.573a1.505,1.505,0,0,1,1.505,1.5A6.8,6.8,0,0,1,8.124,14.571Zm0-12.781a5.995,5.995,0,1,0,6.007,6,0.712,0.712,0,0,0-.713-0.711H9.846a0.711,0.711,0,1,0,0,1.423H12.68L12.542,9A4.573,4.573,0,1,1,10.3,3.76a0.712,0.712,0,1,0,.678-1.252A6.037,6.037,0,0,0,8.124,1.79Zm7.4,1.041H14.732V2.04a0.4,0.4,0,0,0-.792,0V2.831H13.148a0.4,0.4,0,1,0,0,.791H13.94v0.79a0.4,0.4,0,1,0,.792,0V3.622h0.792A0.4,0.4,0,1,0,15.525,2.832ZM14.336,4.887a0.475,0.475,0,0,1-.475-0.475V3.7H13.148a0.474,0.474,0,1,1,0-.948h0.713V2.04a0.475,0.475,0,0,1,.95,0V2.752h0.713a0.474,0.474,0,1,1,0,.948H14.811V4.412A0.475,0.475,0,0,1,14.336,4.887ZM13.148,2.911a0.316,0.316,0,1,0,0,.632h0.872V4.412a0.317,0.317,0,1,0,.633,0V3.543h0.872a0.316,0.316,0,1,0,0-.632H14.653V2.04a0.317,0.317,0,0,0-.633,0V2.91H13.148Z"/>
</svg>
