<svg xmlns="http://www.w3.org/2000/svg" width="17" height="18" viewBox="0 0 17 18">
  <defs>
    <style>
      .icon {
        fill: #989898;
        fill-rule: evenodd;
      }
    </style>
  </defs>
  <path id="Forma_1" data-name="Forma 1" class="icon" d="M8.338,16.286A7.251,7.251,0,0,1,1,9.142,7.25,7.25,0,0,1,8.338,2a7.25,7.25,0,0,1,7.338,7.142A7.251,7.251,0,0,1,8.338,16.286Zm0-13.469a6.421,6.421,0,0,0-6.5,6.325,6.422,6.422,0,0,0,6.5,6.327,6.422,6.422,0,0,0,6.5-6.327A6.421,6.421,0,0,0,8.338,2.817ZM7.025,13.474a0.426,0.426,0,0,1-.11-0.014,0.446,0.446,0,0,1-.337-0.542L7.651,8.669A0.461,0.461,0,0,1,8.2,8.34a0.447,0.447,0,0,1,.341.537,1.989,1.989,0,0,0,.133,1.4,0.6,0.6,0,0,0,.518.2c0.677,0,1.394-1.07,1.394-2.081a1.574,1.574,0,0,0-.437-1.146A2.288,2.288,0,0,0,8.51,6.727c-1.954,0-2.328,1.2-2.4,1.568a1.1,1.1,0,0,0,.47,1.251,0.444,0.444,0,0,1,.271.576,0.463,0.463,0,0,1-.592.263,1.932,1.932,0,0,1-1.055-2.25C5.4,7.072,6.388,5.83,8.51,5.83a3.168,3.168,0,0,1,2.3.779,2.415,2.415,0,0,1,.706,1.779c0,1.4-.99,2.977-2.315,2.977a1.545,1.545,0,0,1-1.165-.452l-0.56,2.219A0.46,0.46,0,0,1,7.025,13.474Z"/>
</svg>
