<svg xmlns="http://www.w3.org/2000/svg" width="20" height="22" viewBox="0 0 20 22">
  <defs>
    <style>
      .cls-1 {
        fill: #090e1d;
        fill-rule: evenodd;
      }
    </style>
  </defs>
  <path id="Forma_1" data-name="Forma 1" class="cls-1" d="M12.808,13.75A7.093,7.093,0,0,0,14.627,9,6.918,6.918,0,0,0,7.813,2,6.918,6.918,0,0,0,1,9a6.917,6.917,0,0,0,6.813,7,6.663,6.663,0,0,0,4.08-1.393l5.066,5.2a0.6,0.6,0,0,0,.432.19,0.584,0.584,0,0,0,.431-0.19,0.656,0.656,0,0,0,0-.9ZM2.233,9a5.663,5.663,0,0,1,5.58-5.733A5.663,5.663,0,0,1,13.394,9a5.656,5.656,0,0,1-5.58,5.732A5.663,5.663,0,0,1,2.233,9Z"/>
</svg>
