<svg xmlns="http://www.w3.org/2000/svg" width="15" height="17" viewBox="0 0 15 17">
  <defs>
    <style>
      .icon {
        fill: #989898;
        fill-rule: evenodd;
      }
    </style>
  </defs>
  <path id="Forma_1" data-name="Forma 1" class="icon" d="M9.528,4.5h2.231a1.779,1.779,0,0,0,1.8-1.751A1.779,1.779,0,0,0,11.759,1H9.528A4.781,4.781,0,0,0,4.686,5.707v1.2H2.9a1.753,1.753,0,1,0,0,3.5H4.686v3.835a1.8,1.8,0,0,0,3.6,0V10.414h2.353a1.752,1.752,0,1,0,0-3.5H8.29v-1.2A1.223,1.223,0,0,1,9.528,4.5ZM7.85,7.766h2.793a0.9,0.9,0,1,1,0,1.792H7.85a0.435,0.435,0,0,0-.441.428v4.263a0.922,0.922,0,0,1-1.843,0V9.993a0.438,0.438,0,0,0-.443-0.431H2.9a0.9,0.9,0,1,1,0-1.8H5.126a0.435,0.435,0,0,0,.44-0.424s0,0,0,0,0,0,0-.006V5.707a3.911,3.911,0,0,1,3.962-3.85h2.231a0.91,0.91,0,0,1,.922.9,0.91,0.91,0,0,1-.922.9H9.529A2.092,2.092,0,0,0,7.41,5.707V7.339A0.434,0.434,0,0,0,7.85,7.766Z"/>
</svg>
