<svg xmlns="http://www.w3.org/2000/svg" width="15" height="14" viewBox="0 0 15 14">
  <defs>
    <style>
      .icon {
        fill: #989898;
        fill-rule: evenodd;
      }
    </style>
  </defs>
  <path id="Forma_1" data-name="Forma 1" class="icon" d="M10.182,12.571H4.437a2.963,2.963,0,0,1-3-2.918V4.061a2.962,2.962,0,0,1,3-2.918h5.745a2.962,2.962,0,0,1,3,2.918V9.653A2.963,2.963,0,0,1,10.182,12.571ZM4.437,1.8A2.3,2.3,0,0,0,2.11,4.06V9.652a2.3,2.3,0,0,0,2.327,2.266h5.745a2.3,2.3,0,0,0,2.327-2.266V4.061A2.3,2.3,0,0,0,10.182,1.8H4.437Zm8.407,3.636H8.709a0.327,0.327,0,1,1,0-.653h4.135A0.327,0.327,0,1,1,12.844,5.431Zm-7.021,0H1.774a0.327,0.327,0,1,1,0-.653H5.823A0.327,0.327,0,1,1,5.823,5.431ZM7.309,9.4A2.585,2.585,0,0,1,4.693,6.857a2.617,2.617,0,0,1,5.233,0A2.585,2.585,0,0,1,7.309,9.4Zm0-4.44A1.894,1.894,0,1,0,9.255,6.857,1.922,1.922,0,0,0,7.309,4.963ZM11.1,4.587H9.591a0.331,0.331,0,0,1-.336-0.326V2.791a0.331,0.331,0,0,1,.336-0.326H11.1a0.331,0.331,0,0,1,.335.326v1.47A0.33,0.33,0,0,1,11.1,4.587ZM9.925,3.934h0.839V3.118H9.925V3.934ZM8.709,5.1"/>
</svg>
