<svg xmlns="http://www.w3.org/2000/svg" width="20" height="20" viewBox="0 0 20 20">
  <defs>
    <style>
      .icon {
        fill: #989898;
        fill-rule: evenodd;
      }
    </style>
  </defs>
  <path id="Forma_1" data-name="Forma 1" class="icon" d="M15.658,4.34A8,8,0,0,0,2.474,12.716a0.326,0.326,0,0,0,.613-0.22,7.35,7.35,0,1,1,12.241,2.566l-0.047.049c-0.027.03-.055,0.059-0.084,0.088A7.358,7.358,0,0,1,4.8,15.2l-0.045-.046c0-.03,0-0.06,0-0.089,0-.066,0-0.131,0-0.2,0-.022,0-0.043,0-0.065,0-.043,0-0.087.007-0.13,0-.025,0-0.051.007-0.077s0.007-.078.011-0.116S4.8,14.425,4.8,14.4s0.009-.074.014-0.11,0.009-.055.014-0.083,0.011-.071.018-0.107,0.011-.055.017-0.083,0.014-.069.022-0.1,0.013-.056.02-0.083,0.016-.068.025-0.1l0.023-.083c0.009-.034.019-0.066,0.028-0.1s0.017-.055.026-0.083,0.021-.065.032-0.1l0.029-.081c0.012-.033.023-0.065,0.035-0.1l0.032-.08c0.013-.032.025-0.064,0.039-0.095l0.035-.079,0.042-.093,0.037-.078,0.045-.09,0.04-.077L5.42,12.5q0.021-.039.042-0.074t0.052-.089l0.045-.073c0.018-.029.037-0.057,0.055-0.085l0.047-.072,0.058-.084,0.05-.069,0.062-.082c0.017-.023.034-0.046,0.052-0.068l0.065-.08L6,11.665l0.068-.078,0.056-.064L6.2,11.447l0.058-.06,0.075-.075,0.06-.057c0.026-.025.052-0.048,0.079-0.073l0.061-.055,0.083-.071L6.676,11l0.088-.069,0.061-.048,0.094-.069c0.02-.013.039-0.029,0.06-0.043L7.085,10.7l0.052-.035c0.046-.03.093-0.06,0.141-0.088L7.3,10.566c0.055-.034.111-0.065,0.167-0.1l0.059-.031c0.037-.02.075-0.041,0.113-0.059l0.074-.036L7.805,10.3a3.17,3.17,0,0,0,4.39,0A5.305,5.305,0,0,1,14.8,12.954a0.326,0.326,0,0,0,.6-0.262,5.872,5.872,0,0,0-2.769-2.9A3.178,3.178,0,0,0,10,4.82a0.326,0.326,0,0,0,0,.652,2.527,2.527,0,0,1,1.877,4.222h0a2.521,2.521,0,0,1-3.754,0h0a2.525,2.525,0,0,1,.1-3.49,0.326,0.326,0,1,0-.458-0.463A3.175,3.175,0,0,0,7.37,9.785l-0.009.006-0.075.038L7.17,9.89l-0.08.045c-0.036.02-.071,0.04-0.106,0.061L6.9,10.046l-0.1.063c-0.027.017-.054,0.036-0.08,0.054s-0.064.043-.1,0.065l-0.079.056-0.092.068-0.078.06c-0.03.023-.06,0.046-0.089,0.07l-0.076.062-0.086.073-0.073.065-0.083.076L5.9,10.823l-0.08.079-0.068.069-0.078.083c-0.022.024-.043,0.046-0.064,0.07l-0.076.087-0.061.07c-0.026.03-.05,0.062-0.075,0.093l-0.056.069c-0.026.034-.051,0.068-0.077,0.1l-0.048.064c-0.032.044-.063,0.09-0.094,0.135L5.1,11.781c-0.038.058-.076,0.115-0.112,0.174-0.013.02-.024,0.04-0.037,0.061-0.023.039-.047,0.077-0.07,0.117-0.014.024-.027,0.05-0.041,0.075s-0.04.072-.059,0.108-0.027.054-.041,0.082l-0.053.1-0.039.086c-0.016.035-.032,0.069-0.048,0.1l-0.037.087-0.043.106-0.034.089c-0.013.036-.027,0.071-0.039,0.107s-0.021.061-.031,0.091-0.024.072-.035,0.108l-0.028.092c-0.011.037-.021,0.073-0.031,0.11l-0.025.093c-0.01.037-.019,0.075-0.028,0.112s-0.015.063-.022,0.095-0.016.075-.024,0.114-0.013.063-.018,0.094-0.013.078-.02,0.118-0.01.062-.015,0.092-0.011.082-.016,0.122-0.008.06-.011,0.09-0.008.086-.012,0.129-0.005.057-.008,0.086c0,0.048-.006.1-0.008,0.144,0,0.024,0,.048,0,0.071q0,0.109,0,.218c0,0.079,0,.153.006,0.236a0.359,0.359,0,0,0,.007.056v0a0.293,0.293,0,0,0,.016.051l0,0a0.343,0.343,0,0,0,.025.047l0,0.005a0.4,0.4,0,0,0,.032.041l0,0,0.043,0.045c0.032,0.035.065,0.069,0.1,0.1a8.009,8.009,0,0,0,11.316,0c0.034-.034.066-0.069,0.1-0.1L15.8,15.51A8,8,0,0,0,15.658,4.34Z"/>
</svg>
